<svg width="132" height="48" viewBox="0 0 132 48" fill="none" xmlns="http://www.w3.org/2000/svg">
    <g clip-path="url(#clip0_707_2555)">
        <path
            d="M0 32.9453V15.0383H7.06441C8.26794 15.0027 9.46124 15.2688 10.5357 15.8122C11.4597 16.2965 12.2212 17.0412 12.726 17.9542C13.2441 18.9227 13.5045 20.0081 13.4823 21.1062C13.5048 22.2048 13.2393 23.29 12.7123 24.2542C12.1963 25.1662 11.4222 25.9055 10.4874 26.379C9.3933 26.9137 8.18577 27.1748 6.96851 27.1399H2.46574V24.1054H6.35635C6.98027 24.1284 7.60029 23.9979 8.162 23.7253C8.61795 23.4907 8.99048 23.1213 9.22881 22.6673C9.47244 22.1836 9.59402 21.6477 9.583 21.1062C9.59533 20.5648 9.47367 20.0287 9.22881 19.5456C8.98866 19.0959 8.61428 18.7321 8.15779 18.505C7.58938 18.238 6.9654 18.1107 6.33781 18.1337H3.78455V32.9453H0Z"
            fill="#00317A"/>
        <path
            d="M19.604 25.1805V32.9448H15.8789V15.0388H19.4989V21.8852H19.6561C19.9356 21.1227 20.4504 20.4688 21.1261 20.0183C21.8874 19.543 22.7737 19.307 23.6706 19.3407C24.5248 19.321 25.3688 19.5308 26.1143 19.9483C26.8146 20.3573 27.3799 20.9622 27.7408 21.6885C28.1475 22.531 28.3441 23.4596 28.3137 24.3947V32.9459H24.5876V25.059C24.6363 24.3584 24.4123 23.666 23.9625 23.1266C23.7343 22.8911 23.458 22.7076 23.1524 22.5884C22.8469 22.4693 22.5193 22.4173 22.1919 22.4361C21.724 22.4265 21.2617 22.5379 20.8496 22.7595C20.4604 22.9764 20.1439 23.3033 19.9396 23.6993C19.7099 24.1587 19.5948 24.6669 19.604 25.1805Z"
            fill="#00317A"/>
        <path
            d="M33.1201 17.7839C32.5925 17.7942 32.082 17.5963 31.6991 17.233C31.513 17.0646 31.3644 16.859 31.2628 16.6295C31.1612 16.4001 31.1089 16.1518 31.1094 15.9008C31.1098 15.6498 31.1629 15.4017 31.2653 15.1726C31.3677 14.9435 31.517 14.7384 31.7037 14.5706C32.09 14.2144 32.5959 14.0162 33.1214 14.0154C33.6469 14.0147 34.1535 14.2113 34.5408 14.5664C34.7267 14.7348 34.8753 14.9402 34.977 15.1695C35.0787 15.3987 35.1313 15.6468 35.1313 15.8976C35.1313 16.1484 35.0787 16.3965 34.977 16.6258C34.8753 16.8551 34.7267 17.0605 34.5408 17.2288C34.1592 17.5944 33.6484 17.794 33.1201 17.7839ZM31.249 32.9456V19.5154H34.9741V32.9456H31.249Z"
            fill="#00317A"/>
        <path d="M41.67 15.0388V32.9459H37.9453V15.0388H41.67Z" fill="#00317A"/>
        <path d="M48.3692 15.0388V32.9459H44.6445V15.0388H48.3692Z" fill="#00317A"/>
        <path
            d="M53.2139 17.7839C52.6863 17.7941 52.176 17.5962 51.7932 17.2329C51.6071 17.0646 51.4584 16.859 51.3567 16.6295C51.2551 16.4001 51.2027 16.1518 51.2031 15.9008C51.2035 15.6498 51.2566 15.4017 51.359 15.1725C51.4614 14.9434 51.6108 14.7383 51.7974 14.5705C52.1838 14.2143 52.6899 14.0162 53.2153 14.0154C53.7408 14.0147 54.2475 14.2113 54.6349 14.5663C54.8207 14.7347 54.9692 14.9402 55.0709 15.1695C55.1725 15.3987 55.225 15.6467 55.225 15.8975C55.225 16.1483 55.1725 16.3963 55.0709 16.6256C54.9692 16.8549 54.8207 17.0604 54.6349 17.2288C54.2532 17.5943 53.7423 17.7939 53.2139 17.7839ZM51.3428 32.9455V19.5153H55.0678V32.9455H51.3428Z"
            fill="#00317A"/>
        <path
            d="M58.0391 37.9825V19.5158H61.7113V21.7716H61.8775C62.0645 21.3727 62.3042 21.0007 62.5901 20.6656C62.9282 20.2687 63.3455 19.9469 63.8151 19.7206C64.405 19.4487 65.0503 19.3185 65.6995 19.3401C66.6572 19.3341 67.5971 19.5993 68.4103 20.1052C69.2803 20.6637 69.9698 21.4624 70.3951 22.4047C70.9282 23.6137 71.1822 24.9272 71.1382 26.2477C71.1769 27.5486 70.9307 28.8422 70.4168 30.0379C70.0018 30.9885 69.3212 31.7992 68.4568 32.3727C67.6311 32.9004 66.6692 33.1753 65.6894 33.1637C65.0569 33.1821 64.4284 33.0596 63.8491 32.8053C63.379 32.5917 62.9579 32.2838 62.6118 31.9006C62.3135 31.5701 62.0658 31.1973 61.8768 30.7942H61.7634V37.9818L58.0391 37.9825ZM61.685 26.2306C61.6707 26.9414 61.7832 27.649 62.0172 28.3204C62.2025 28.8629 62.5356 29.3428 62.979 29.7061C63.426 30.0288 63.9637 30.2018 64.5151 30.2002C65.0665 30.1987 65.6032 30.0226 66.0485 29.6973C66.4913 29.3286 66.8228 28.8438 67.0057 28.2973C67.2353 27.6326 67.3463 26.9327 67.3337 26.2295C67.3464 25.5338 67.237 24.8413 67.0103 24.1834C66.828 23.6428 66.4977 23.1641 66.0569 22.802C65.6082 22.4812 65.0712 22.3073 64.5196 22.3042C63.9681 22.3011 63.4292 22.4689 62.9769 22.7845C62.5349 23.1398 62.2028 23.6131 62.0189 24.1495C61.7838 24.8176 61.6707 25.5225 61.685 26.2306Z"
            fill="#00317A"/>
        <path
            d="M73.6797 32.9462V15.0391H80.8494C81.977 15.0039 83.0997 15.2034 84.1461 15.625C84.9542 15.9563 85.6453 16.521 86.1309 17.2469C86.58 17.9594 86.8112 18.7876 86.7959 19.6297C86.8099 20.2684 86.6656 20.9006 86.3759 21.47C86.104 21.989 85.7093 22.4336 85.2262 22.765C84.722 23.1075 84.1564 23.3494 83.5605 23.4773V23.6523C84.2385 23.6805 84.8985 23.8789 85.4796 24.2294C86.0848 24.5931 86.5862 25.1065 86.9356 25.7201C87.3231 26.4154 87.5165 27.2021 87.4956 27.9979C87.5105 28.8947 87.2661 29.7769 86.7917 30.5382C86.2847 31.314 85.5633 31.9259 84.7152 32.2997C83.6485 32.7616 82.4932 32.9826 81.3314 32.9469L73.6797 32.9462ZM77.4656 22.5323H80.2723C80.7487 22.5409 81.2214 22.447 81.6583 22.2568C82.0444 22.089 82.3771 21.8184 82.6201 21.4746C82.8624 21.1164 82.9865 20.6913 82.975 20.259C82.9854 19.9633 82.9291 19.6691 82.8103 19.3981C82.6915 19.1272 82.5132 18.8865 82.2886 18.6938C81.7341 18.2657 81.0425 18.0542 80.3433 18.0988H77.4663L77.4656 22.5323ZM77.4656 29.8508H80.5523C81.6072 29.8508 82.3766 29.6482 82.8605 29.2432C83.0978 29.0466 83.2866 28.7981 83.4124 28.5168C83.5383 28.2356 83.5977 27.9292 83.5861 27.6213C83.5951 27.1587 83.4708 26.7033 83.228 26.3095C82.9791 25.9223 82.626 25.6133 82.2092 25.418C81.7177 25.1912 81.1806 25.0804 80.6394 25.0943H77.4656V29.8508Z"
            fill="#F78F20"/>
        <path
            d="M93.712 33.2C92.925 33.2138 92.1441 33.0603 91.4209 32.7495C90.7728 32.468 90.2212 32.003 89.834 31.4118C89.4262 30.7463 89.224 29.9752 89.2527 29.1953C89.2311 28.5442 89.3723 27.8981 89.6636 27.3154C89.9273 26.819 90.3127 26.3975 90.7836 26.0904C91.2796 25.7709 91.8245 25.5345 92.3967 25.3904C93.0209 25.2296 93.6569 25.1186 94.2986 25.0583C95.0796 24.9768 95.7096 24.8996 96.1886 24.8266C96.5546 24.7911 96.909 24.6793 97.2292 24.4986C97.3347 24.4282 97.4201 24.3315 97.4769 24.218C97.5336 24.1045 97.5599 23.9782 97.5529 23.8515V23.7993C97.567 23.5598 97.5276 23.3202 97.4376 23.0979C97.3476 22.8755 97.2092 22.676 97.0325 22.5138C96.6136 22.1868 96.0893 22.0249 95.559 22.0588C94.992 22.0291 94.4306 22.1841 93.9591 22.5005C93.58 22.7702 93.3028 23.1598 93.1723 23.6065L89.7269 23.3265C89.8857 22.5436 90.2408 21.814 90.7591 21.2062C91.2989 20.5897 91.982 20.1153 92.7481 19.8247C93.6516 19.485 94.6114 19.3203 95.5765 19.3393C96.3003 19.3366 97.0215 19.4246 97.7234 19.6014C98.376 19.7619 98.9947 20.0374 99.5507 20.4148C100.079 20.7768 100.513 21.2612 100.814 21.8267C101.138 22.4639 101.297 23.1718 101.278 23.8861V32.9445H97.743V31.0821H97.638C97.4219 31.5022 97.1281 31.8775 96.7721 32.1881C96.39 32.5179 95.9474 32.7702 95.469 32.9312C94.9027 33.119 94.3086 33.2099 93.712 33.2ZM94.7788 30.6292C95.282 30.6393 95.78 30.5268 96.2299 30.3013C96.6322 30.0983 96.9732 29.7919 97.218 29.4137C97.4587 29.0352 97.5834 28.5945 97.5767 28.146V26.7208C97.4279 26.8107 97.2676 26.8798 97.1 26.9262C96.8771 26.9928 96.6509 27.0482 96.4224 27.0921C96.1716 27.1418 95.921 27.1856 95.6706 27.2234C95.4203 27.2612 95.1928 27.2947 94.9881 27.3238C94.5948 27.3762 94.2099 27.4792 93.8429 27.6301C93.5446 27.7486 93.2825 27.9429 93.0824 28.1939C92.8959 28.4481 92.8004 28.7577 92.8115 29.0728C92.7992 29.297 92.8436 29.5206 92.9406 29.7231C93.0376 29.9256 93.1841 30.1004 93.3666 30.2313C93.7832 30.5103 94.2778 30.6497 94.7788 30.6292Z"
            fill="#F78F20"/>
        <path
            d="M107.898 25.1797V32.9441H104.172V19.5149H107.723V21.8844H107.881C108.165 21.1195 108.69 20.4675 109.376 20.0263C110.138 19.5513 111.023 19.3125 111.921 19.3399C112.774 19.3197 113.617 19.5312 114.36 19.9521C115.057 20.3639 115.619 20.9701 115.977 21.6965C116.381 22.537 116.579 23.4617 116.555 24.3939V32.9451H112.828V25.0582C112.875 24.3583 112.649 23.6674 112.198 23.1301C111.972 22.8947 111.699 22.7108 111.395 22.5909C111.092 22.471 110.766 22.4179 110.441 22.4353C109.978 22.4256 109.522 22.5371 109.116 22.7587C108.732 22.9764 108.422 23.3036 108.224 23.6985C108.001 24.1597 107.889 24.6672 107.898 25.1797Z"
            fill="#F78F20"/>
        <path
            d="M119.477 32.9459V15.0388H123.202V32.9459H119.477ZM122.852 29.0812L122.86 24.6131H123.403L127.703 19.5157H131.979L126.2 26.2654H125.317L122.852 29.0812ZM127.87 32.9459L123.918 27.0964L126.403 24.4643L132.235 32.9459H127.87Z"
            fill="#F78F20"/>
    </g>
</svg>
